<?xml version="1.0" encoding="iso-8859-1"?>
<!-- Generator: Adobe Illustrator 16.0.0, SVG Export Plug-In . SVG Version: 6.00 Build 0)  -->
<!DOCTYPE svg PUBLIC "-//W3C//DTD SVG 1.1//EN" "http://www.w3.org/Graphics/SVG/1.1/DTD/svg11.dtd">
<svg width="368" height="313" viewBox="0 0 368 313" fill="none" xmlns="http://www.w3.org/2000/svg">
<path d="M41.1599 5.9121C28.8978 3.09372 14.7964 7.60313 2.53427 8.73048C-0.531264 8.73048 -1.14437 13.2399 2.53427 13.8036C14.7964 14.3673 29.5109 13.8036 41.1599 10.9852C43.6134 9.85784 43.6134 6.47578 41.1599 5.9121Z" fill="#831818"/>
<path d="M114.253 22.0049C105.84 13.3457 92.6196 11.4901 81.8028 12.1087C79.3991 12.1087 79.3991 15.8197 81.8028 15.8197C87.8121 16.4382 93.2206 17.6753 98.629 19.5308C103.436 21.3863 107.643 23.8604 112.45 25.7159C114.253 26.953 116.056 23.8604 114.253 22.0049Z" fill="#831818"/>
<path d="M178.754 69.4365C176.287 63.9261 171.353 59.028 166.419 55.3544C162.101 51.0686 156.551 47.395 151.617 44.3337C149.766 43.1092 147.916 45.5583 149.766 46.7828C154.7 50.4564 159.018 54.7422 162.718 59.028C167.035 63.3139 170.119 68.8242 174.436 73.11C176.286 75.5591 179.986 72.4978 178.754 69.4365Z" fill="#831818"/>
<path d="M191.004 107.444C189.063 104.302 184.531 106.816 186.474 109.958C187.768 113.101 189.71 116.872 191.004 120.015C192.299 124.415 191.65 128.815 193.592 132.586C194.239 134.471 197.475 134.471 198.122 132.586C201.359 125.672 194.887 114.358 191.004 107.444Z" fill="#831818"/>
<path d="M207.315 184.281C207.315 178.088 207.315 171.896 206.129 166.322C205.537 163.226 201.98 163.226 201.98 166.322C201.387 171.896 201.387 176.85 201.387 182.423C201.387 187.996 200.202 193.57 201.98 199.143C202.573 201.619 206.722 201.619 207.315 199.143C208.501 194.189 207.909 189.235 207.315 184.281Z" fill="#831818"/>
<path d="M192.944 237.766C190.442 243.997 187.941 250.227 184.189 256.458C181.063 262.067 176.686 267.675 176.061 273.906C175.435 277.022 179.812 277.645 181.688 276.398C186.691 272.037 189.193 264.558 191.693 258.327C194.821 252.096 196.695 245.866 197.946 239.635C198.571 235.896 193.568 234.65 192.944 237.766Z" fill="#831818"/>
<path d="M164.832 284.781C161.147 289.182 157.462 294.214 153.777 297.987C151.935 299.873 149.478 301.76 147.022 303.017C144.565 304.275 143.337 304.275 141.494 306.79C140.266 308.677 141.494 311.192 143.337 311.821C148.864 313.08 153.777 307.419 157.462 303.646C161.761 298.616 164.832 292.957 167.903 286.669C168.518 284.781 166.06 282.895 164.832 284.781Z" fill="#831818"/>
<path d="M118.076 300.334C114.93 302.809 111.155 304.665 107.381 304.665C104.235 304.665 100.46 304.046 97.9437 306.522C96.6854 307.759 96.6854 309.616 97.9437 310.853C104.235 317.041 116.817 308.378 120.592 303.427C121.851 301.571 119.964 299.095 118.076 300.334Z" fill="#831818"/>
<path d="M78.6566 287.361C73.8802 286.765 68.5068 285.57 63.7303 283.778C58.3569 281.391 55.9687 277.211 52.9834 272.433C51.1922 270.045 47.6099 270.642 47.0129 274.224C46.4158 290.347 66.7156 293.332 78.6566 291.541C80.4478 290.945 80.4478 287.361 78.6566 287.361Z" fill="#831818"/>
<path d="M47.9034 247.256C43.0207 237.993 44.2414 228.731 42.4104 218.852C41.8001 216.383 38.1381 216.383 37.5277 218.852C35.6967 229.349 38.7484 240.463 44.8517 249.108C46.0724 250.961 48.5147 249.726 47.9034 247.256Z" fill="#831818"/>
<path d="M50.6279 141.818C39.8767 152.364 37.4875 167.873 38.0848 182.139C38.0848 184.62 42.2658 184.62 42.2658 182.139C42.8631 169.112 46.4469 156.086 54.2116 145.541C56.6017 143.059 53.018 139.337 50.6279 141.818Z" fill="#831818"/>
<path d="M86.4499 98.2781C75.1528 103.776 66.3662 114.16 59.4624 124.545C57.5796 126.988 61.9729 129.431 63.2281 126.988C70.7595 117.825 80.1737 110.495 88.9603 102.554C91.4708 100.111 88.9593 97.0564 86.4499 98.2781Z" fill="#831818"/>
<path d="M122.429 62C113.947 62 104.252 69.3672 98.7993 75.5065C96.3757 77.9623 100.011 81.6459 102.435 79.1901C105.464 76.1205 109.1 73.6647 112.735 71.8229C116.37 69.9811 120.612 68.7533 124.247 66.2975C126.065 65.0697 124.247 62 122.429 62Z" fill="#831818"/>
<path d="M204.02 37C199.151 37 194.282 38.728 189.413 39.304C183.327 40.456 177.24 41.032 171.763 43.336C168.72 44.488 169.937 48.52 172.98 47.944C178.458 46.792 184.544 46.216 190.022 45.64C194.891 45.064 200.977 45.064 205.238 42.184C208.281 41.032 207.062 37 204.02 37Z" fill="#831818"/>
<path d="M258.699 30.784C250.718 28.9734 240.896 30.784 232.302 31.3876C229.233 31.3876 229.233 35.6124 232.302 35.6124C240.896 36.216 250.104 38.0266 258.699 36.216C261.767 35.6124 261.767 31.3876 258.699 30.784Z" fill="#831818"/>
<path d="M316.191 33.7143C311.97 32.5714 307.749 33.1429 303.527 33.1429C299.307 33.1429 294.482 33.1429 290.261 33.7143C287.246 33.7143 287.246 38.2857 290.261 38.2857C294.482 38.2857 299.307 38.2857 303.527 38.8571C307.748 38.8571 311.969 39.4286 316.191 38.2857C318.603 38.2857 318.603 34.8571 316.191 33.7143Z" fill="#831818"/>
<path d="M366.545 35.7516C358.664 27.7449 350.784 20.3541 342.299 13.5792C336.237 8.65195 327.144 -0.586584 319.263 0.029318C316.233 0.029318 313.808 3.72473 315.626 6.80424C319.263 12.9633 327.75 16.6587 333.205 20.3541C339.873 25.2813 346.541 31.4403 353.209 37.5994C341.086 42.5266 328.962 49.3015 317.445 55.4605C313.808 57.3082 316.233 64.0832 320.477 62.8513C335.631 57.9241 348.967 48.0697 364.727 44.9902C368.363 44.3743 368.97 38.8312 366.545 35.7516Z" fill="#831818"/>
</svg>
